<svg width="384px" height="384px" viewBox="0 0 384 384" version="1.1" xmlns="http://www.w3.org/2000/svg" aria-hidden="true" role="img" focusable="false" preserveAspectRatio="xMidYMid meet"><rect fill="#49CC68" x="0" y="0" width="384" height="384" rx="90"></rect><g transform="translate(64.416992, 136.267578)" fill="#FFFFFF" fill-rule="nonzero" stroke="#FFFFFF" stroke-width="5"><path d="M0,16.5673828 C0.188802083,15.5289714 0.731608073,14.6321615 1.62841797,13.8769531 C2.52522786,13.1217448 3.49283854,12.7441406 4.53125,12.7441406 C5.09765625,12.7441406 5.64046224,12.956543 6.15966797,13.3813477 C6.6788737,13.8061523 7.12727865,14.3253581 7.50488281,14.9389648 C7.88248698,15.5525716 8.21289062,16.1661784 8.49609375,16.7797852 C8.77929688,17.3933919 8.92089844,17.9361979 8.92089844,18.4082031 L14.4433594,67.2607422 C15.0097656,66.6943359 16.2133789,64.8771159 18.0541992,61.809082 C19.8950195,58.7410482 22.0662435,55.1538086 24.5678711,51.0473633 C27.0694987,46.940918 29.7599284,42.6692708 32.6391602,38.2324219 C35.5183919,33.7955729 38.3268229,29.9487305 41.0644531,26.6918945 C43.8020833,23.4350586 46.2565104,21.1222331 48.4277344,19.753418 C50.5989583,18.3846029 52.2981771,18.6442057 53.5253906,20.5322266 C49.2773438,27.3291016 45.5485026,33.0639648 42.3388672,37.7368164 C39.1292318,42.409668 36.3208008,46.4217122 33.9135742,49.7729492 C31.5063477,53.1241862 29.4767253,56.003418 27.824707,58.4106445 C26.1726888,60.8178711 24.7330729,63.1306966 23.5058594,65.3491211 C22.2786458,67.5675456 21.2402344,69.8803711 20.390625,72.2875977 C19.5410156,74.6948242 18.7386068,77.5504557 17.9833984,80.8544922 C17.9833984,81.2320964 18.1013997,81.5388997 18.3374023,81.7749023 C18.5734049,82.0109049 19.2342122,82.2941081 20.3198242,82.6245117 C21.4054362,82.9549154 23.0810547,83.2145182 25.3466797,83.4033203 C27.6123047,83.5921224 30.7275391,83.7809245 34.6923828,83.9697266 C38.6572266,84.1585286 43.6604818,84.3001302 49.7021484,84.3945312 C55.7438151,84.4889323 63.1542969,84.5361328 71.9335938,84.5361328 C71.9335938,85.9521484 71.5795898,87.3445638 70.871582,88.7133789 C70.1635742,90.082194 68.8655599,90.7666016 66.9775391,90.7666016 L16.2841797,90.7666016 C17.039388,93.4098307 17.582194,96.0294596 17.9125977,98.6254883 C18.2430013,101.221517 18.4082031,103.793945 18.4082031,106.342773 C18.4082031,108.041992 18.1013997,108.915202 17.487793,108.962402 C16.8741862,109.009603 15.5289714,109.033203 13.4521484,109.033203 C13.4521484,109.033203 13.3341471,109.009603 13.0981445,108.962402 C12.8621419,108.915202 12.6969401,108.891602 12.6025391,108.891602 C12.413737,108.230794 12.1305339,107.050781 11.7529297,105.351562 C11.3753255,103.652344 10.9977214,101.858724 10.6201172,99.9707031 C10.242513,98.0826823 9.88850911,96.2654622 9.55810547,94.519043 C9.22770182,92.7726237 9.01529948,91.5218099 8.92089844,90.7666016 C8.8264974,89.8225911 8.63769531,87.7929688 8.35449219,84.6777344 C8.07128906,81.5625 7.74088542,77.9752604 7.36328125,73.9160156 C6.98567708,69.8567708 6.60807292,65.5143229 6.23046875,60.8886719 C5.85286458,56.2630208 5.47526042,51.8969727 5.09765625,47.7905273 C4.72005208,43.684082 4.38964844,40.1204427 4.10644531,37.0996094 L3.54003906,31.0107422 C3.54003906,30.7275391 3.46923828,30.1847331 3.32763672,29.3823242 C3.18603516,28.5799154 2.99723307,27.7067057 2.76123047,26.7626953 C2.52522786,25.8186849 2.33642578,24.8746745 2.19482422,23.9306641 C2.05322266,22.9866536 1.93522135,22.3258464 1.84082031,21.9482422 C1.84082031,21.8538411 1.72281901,21.5234375 1.48681641,20.9570312 C1.2508138,20.390625 1.03841146,19.8242188 0.849609375,19.2578125 C0.660807292,18.6914062 0.472005208,18.1486003 0.283203125,17.6293945 C0.0944010417,17.1101888 0,16.7561849 0,16.5673828 Z" id="Path"></path><path d="M123.901367,72.7832031 C122.957357,76.2760417 121.706543,80.1228841 120.148926,84.3237305 C118.591309,88.5245768 116.656087,92.4658203 114.343262,96.1474609 C112.030436,99.8291016 109.269206,102.920736 106.05957,105.422363 C102.849935,107.923991 99.1210937,109.174805 94.8730469,109.174805 C91.5690104,109.174805 88.902181,108.490397 86.8725586,107.121582 C84.8429362,105.752767 83.2617187,103.911947 82.1289062,101.599121 C80.9960937,99.2862956 80.1700846,96.7374674 79.6508789,93.9526367 C79.1316732,91.167806 78.7776693,88.359375 78.5888672,85.5273438 C78.4944661,84.5833333 78.4000651,82.6717122 78.3056641,79.7924805 C78.211263,76.9132487 78.116862,73.5148112 78.0224609,69.597168 C77.9280599,65.6795247 77.8100586,61.5022786 77.668457,57.0654297 C77.5268555,52.6285807 77.3852539,48.4749349 77.2436523,44.6044922 C77.1020508,40.7340495 76.9840495,37.335612 76.8896484,34.4091797 C76.7952474,31.4827474 76.7480469,29.547526 76.7480469,28.6035156 C76.6536458,27.6595052 76.7008464,26.9278971 76.8896484,26.4086914 C77.0784505,25.8894857 77.4088542,25.5118815 77.8808594,25.2758789 C78.3528646,25.0398763 78.8956706,24.8982747 79.5092773,24.8510742 C80.1228841,24.8038737 80.6656901,24.7802734 81.1376953,24.7802734 L82.2705078,24.7802734 C82.8369141,24.7802734 83.3561198,24.827474 83.828125,24.921875 C84.3001302,25.016276 84.7249349,25.2286784 85.1025391,25.559082 C85.4801432,25.8894857 85.6689453,26.3378906 85.6689453,26.9042969 L85.6689453,87.2265625 C85.6689453,88.9257812 85.9285482,90.625 86.4477539,92.3242188 C86.9669596,94.0234375 87.6985677,95.6046549 88.6425781,97.0678711 C89.5865885,98.5310872 90.7666016,99.7347005 92.1826172,100.678711 C93.5986328,101.622721 95.2034505,102.094727 96.9970703,102.094727 C100.58431,101.811523 103.675944,99.8999023 106.271973,96.3598633 C108.868001,92.8198242 111.110026,88.359375 112.998047,82.9785156 C114.886068,77.5976562 116.443685,71.7447917 117.670898,65.4199219 C118.898112,59.0950521 119.983724,53.0061849 120.927734,47.1533203 C121.871745,41.3004557 122.697754,36.1083984 123.405762,31.5771484 C124.11377,27.0458984 124.892578,23.8834635 125.742187,22.0898438 C127.535807,20.485026 128.951823,20.0838216 129.990234,20.8862305 C131.028646,21.6886393 131.807454,22.9158529 132.32666,24.5678711 C132.845866,26.2198893 133.152669,28.0135091 133.24707,29.9487305 C133.341471,31.8839518 133.24707,33.2763672 132.963867,34.1259766 C132.963867,40.4508464 132.657064,46.7285156 132.043457,52.9589844 C131.42985,59.1894531 131.123047,65.5143229 131.123047,71.9335938 C131.123047,75.9928385 131.311849,80.0520833 131.689453,84.1113281 C132.067057,88.1705729 132.491862,92.2298177 132.963867,96.2890625 C133.435872,100.348307 133.860677,104.383952 134.238281,108.395996 C134.615885,112.40804 134.804687,116.396484 134.804687,120.361328 C134.804687,121.116536 134.757487,121.895345 134.663086,122.697754 C134.568685,123.500163 134.356283,124.231771 134.025879,124.892578 C133.695475,125.553385 133.24707,126.119792 132.680664,126.591797 C132.114258,127.063802 131.311849,127.299805 130.273437,127.299805 C130.273437,127.299805 130.155436,127.276204 129.919434,127.229004 C129.683431,127.181803 129.471029,127.158203 129.282227,127.158203 L123.901367,72.7832031 Z" id="Path"></path><path d="M214.384766,16.5673828 C214.007161,16.3785807 213.464355,17.4405924 212.756348,19.753418 C212.04834,22.0662435 211.12793,25.0398763 209.995117,28.6743164 C208.862305,32.3087565 207.658691,36.4152018 206.384277,40.9936523 C205.109863,45.5721029 203.717448,50.1269531 202.207031,54.6582031 C200.696615,59.1894531 199.186198,63.4138997 197.675781,67.331543 C196.165365,71.2491862 194.654948,74.3408203 193.144531,76.6064453 C191.634115,78.8720703 190.218099,80.1228841 188.896484,80.3588867 C187.57487,80.5948893 186.394857,79.2496745 185.356445,76.3232422 C184.601237,75.0016276 183.539225,72.9012044 182.17041,70.0219727 C180.801595,67.1427409 179.220378,63.9095052 177.426758,60.3222656 C175.633138,56.735026 173.745117,52.9589844 171.762695,48.9941406 C169.780273,45.0292969 167.915853,41.2768555 166.169434,37.7368164 C164.423014,34.1967773 162.818197,31.0107422 161.35498,28.1787109 C159.891764,25.3466797 158.829753,23.2698568 158.168945,21.9482422 C157.036133,19.8714193 156.021322,18.1958008 155.124512,16.9213867 C154.227702,15.6469727 152.835286,15.0097656 150.947266,15.0097656 C150.947266,21.6178385 151.32487,28.8867187 152.080078,36.8164062 C152.835286,44.7460938 153.661296,52.7701823 154.558105,60.8886719 C155.454915,69.0071615 156.280924,77.0076497 157.036133,84.8901367 C157.791341,92.7726237 158.168945,100.065104 158.168945,106.767578 C158.546549,107.617188 158.428548,108.419596 157.814941,109.174805 C157.201335,109.930013 156.351725,110.496419 155.266113,110.874023 C154.180501,111.251628 153.000488,111.275228 151.726074,110.944824 C150.45166,110.614421 149.389648,109.835612 148.540039,108.608398 C147.69043,100.206706 147.242025,91.6398112 147.194824,82.9077148 C147.147624,74.1756185 147.076823,65.4199219 146.982422,56.640625 C146.888021,47.8613281 146.510417,39.058431 145.849609,30.2319336 C145.188802,21.4054362 143.867188,12.6025391 141.884766,3.82324219 C141.790365,2.12402344 142.073568,1.06201172 142.734375,0.637207031 C143.395182,0.212402344 144.244792,0 145.283203,0 C147.548828,0 149.602051,0.54280599 151.442871,1.62841797 C153.283691,2.71402995 154.95931,4.08284505 156.469727,5.73486328 C157.980143,7.38688151 159.325358,9.20410156 160.505371,11.1865234 C161.685384,13.1689453 162.747396,14.9625651 163.691406,16.5673828 C164.446615,17.7945964 165.485026,19.7298177 166.806641,22.3730469 L171.337891,31.5771484 C173.037109,34.9755859 174.807129,38.5392253 176.647949,42.2680664 C178.48877,45.9969076 180.258789,49.5369466 181.958008,52.8881836 C183.657227,56.2394206 185.214844,59.2130534 186.630859,61.809082 C188.046875,64.4051107 189.132487,66.2695312 189.887695,67.4023438 C190.265299,67.4023438 190.595703,67.2607422 190.878906,66.9775391 C191.162109,66.6943359 191.563314,65.8919271 192.08252,64.5703125 C192.601725,63.2486979 193.309733,61.2190755 194.206543,58.4814453 C195.103353,55.7438151 196.354167,51.9677734 197.958984,47.1533203 C199.563802,42.3388672 201.546224,36.25 203.90625,28.8867187 C206.266276,21.5234375 209.145508,12.5553385 212.543945,1.98242188 C212.732747,1.51041667 213.346354,1.08561198 214.384766,0.708007812 C215.423177,0.330403646 216.367188,0.141601562 217.216797,0.141601562 C218.066406,0.141601562 218.656413,0.424804688 218.986816,0.991210938 C219.31722,1.55761719 219.576823,2.5016276 219.765625,3.82324219 C220.615234,11.8473307 221.299642,20.2254232 221.818848,28.9575195 C222.338053,37.6896159 223.022461,46.5161133 223.87207,55.4370117 C224.72168,64.3579102 225.783691,73.2080078 227.058105,81.9873047 C228.33252,90.7666016 230.102539,99.1210938 232.368164,107.050781 L222.597656,110.874023 L214.384766,16.5673828 Z" id="Path"></path><path d="M243.979492,4.95605469 C243.979492,4.20084635 244.239095,3.65804036 244.758301,3.32763672 C245.277507,2.99723307 245.891113,2.80843099 246.599121,2.76123047 C247.307129,2.71402995 248.062337,2.73763021 248.864746,2.83203125 C249.667155,2.92643229 250.351562,2.97363281 250.917969,2.97363281 C251.389974,4.10644531 251.791178,6.34847005 252.121582,9.69970703 C252.451986,13.050944 252.782389,17.1101888 253.112793,21.8774414 C253.443197,26.644694 253.679199,31.9075521 253.820801,37.6660156 C253.962402,43.4244792 254.104004,49.2537435 254.245605,55.1538086 C254.387207,61.0538737 254.481608,66.8359375 254.528809,72.5 C254.576009,78.1640625 254.62321,83.3325195 254.67041,88.0053711 C254.717611,92.6782227 254.741211,96.6666667 254.741211,99.9707031 L254.741211,106.342773 C254.64681,108.230794 254.245605,109.340007 253.537598,109.67041 C252.82959,110.000814 251.201172,109.788411 248.652344,109.033203 C248.369141,108.938802 248.133138,107.522786 247.944336,104.785156 C247.755534,102.047526 247.613932,98.4366862 247.519531,93.9526367 C247.42513,89.4685872 247.330729,84.3237305 247.236328,78.5180664 C247.141927,72.7124023 247.047526,66.7415365 246.953125,60.6054688 C246.858724,54.469401 246.740723,48.3333333 246.599121,42.1972656 C246.45752,36.0611979 246.292318,30.4679362 246.103516,25.4174805 C245.914714,20.3670247 245.655111,16.0245768 245.324707,12.3901367 C244.994303,8.75569661 244.545898,6.27766927 243.979492,4.95605469 Z" id="Path"></path></g></svg>