<svg width="192px" height="192px" viewBox="0 0 192 192" version="1.1" xmlns="http://www.w3.org/2000/svg" aria-hidden="true" role="img" focusable="false" preserveAspectRatio="xMidYMid meet"><rect fill="#49CC68" x="0" y="0" width="192" height="192" rx="50"></rect><g transform="translate(34.408203, 64.542969)" fill="#FFFFFF" fill-rule="nonzero" stroke="#FFFFFF" stroke-width="4"><path d="M0,7.99804688 C0.0911458333,7.49674479 0.353190104,7.06380208 0.786132812,6.69921875 C1.21907552,6.33463542 1.68619792,6.15234375 2.1875,6.15234375 C2.4609375,6.15234375 2.72298177,6.25488281 2.97363281,6.45996094 C3.22428385,6.66503906 3.44075521,6.9156901 3.62304688,7.21191406 C3.80533854,7.50813802 3.96484375,7.80436198 4.1015625,8.10058594 C4.23828125,8.3968099 4.30664062,8.65885417 4.30664062,8.88671875 L6.97265625,32.4707031 C7.24609375,32.1972656 7.82714844,31.319987 8.71582031,29.8388672 C9.60449219,28.3577474 10.6526693,26.6259766 11.8603516,24.6435547 C13.0680339,22.6611328 14.366862,20.5989583 15.7568359,18.4570312 C17.1468099,16.3151042 18.5026042,14.4580078 19.8242188,12.8857422 C21.1458333,11.3134766 22.3307292,10.1969401 23.3789062,9.53613281 C24.4270833,8.87532552 25.2473958,9.00065104 25.8398438,9.91210938 C23.7890625,13.1933594 21.9889323,15.9619141 20.4394531,18.2177734 C18.889974,20.4736328 17.5341797,22.4104818 16.3720703,24.0283203 C15.2099609,25.6461589 14.2301432,27.0361328 13.4326172,28.1982422 C12.6350911,29.3603516 11.9401042,30.476888 11.3476562,31.5478516 C10.7552083,32.6188151 10.2539062,33.7353516 9.84375,34.8974609 C9.43359375,36.0595703 9.04622396,37.438151 8.68164062,39.0332031 C8.68164062,39.2154948 8.73860677,39.3636068 8.85253906,39.4775391 C8.96647135,39.5914714 9.28548177,39.7281901 9.80957031,39.8876953 C10.3336589,40.0472005 11.1425781,40.172526 12.2363281,40.2636719 C13.3300781,40.3548177 14.8339844,40.4459635 16.7480469,40.5371094 C18.6621094,40.6282552 21.077474,40.6966146 23.9941406,40.7421875 C26.9108073,40.7877604 30.4882812,40.8105469 34.7265625,40.8105469 C34.7265625,41.4941406 34.5556641,42.1663411 34.2138672,42.8271484 C33.8720703,43.4879557 33.2454427,43.8183594 32.3339844,43.8183594 L7.86132812,43.8183594 C8.22591146,45.094401 8.48795573,46.3590495 8.64746094,47.6123047 C8.80696615,48.8655599 8.88671875,50.1074219 8.88671875,51.3378906 C8.88671875,52.1582031 8.73860677,52.5797526 8.44238281,52.6025391 C8.14615885,52.6253255 7.49674479,52.6367188 6.49414062,52.6367188 C6.49414062,52.6367188 6.43717448,52.6253255 6.32324219,52.6025391 C6.2093099,52.5797526 6.12955729,52.5683594 6.08398438,52.5683594 C5.99283854,52.249349 5.85611979,51.6796875 5.67382812,50.859375 C5.49153646,50.0390625 5.30924479,49.1731771 5.12695312,48.2617188 C4.94466146,47.3502604 4.77376302,46.4729818 4.61425781,45.6298828 C4.4547526,44.7867839 4.35221354,44.1829427 4.30664062,43.8183594 C4.26106771,43.3626302 4.16992188,42.3828125 4.03320312,40.8789062 C3.89648438,39.375 3.73697917,37.6432292 3.5546875,35.6835938 C3.37239583,33.7239583 3.19010417,31.6276042 3.0078125,29.3945312 C2.82552083,27.1614583 2.64322917,25.0537109 2.4609375,23.0712891 C2.27864583,21.0888672 2.11914062,19.3684896 1.98242188,17.9101562 L1.70898438,14.9707031 C1.70898438,14.8339844 1.67480469,14.5719401 1.60644531,14.1845703 C1.53808594,13.7972005 1.4469401,13.375651 1.33300781,12.9199219 C1.21907552,12.4641927 1.12792969,12.0084635 1.05957031,11.5527344 C0.991210938,11.0970052 0.934244792,10.7779948 0.888671875,10.5957031 C0.888671875,10.5501302 0.831705729,10.390625 0.717773438,10.1171875 C0.603841146,9.84375 0.501302083,9.5703125 0.41015625,9.296875 C0.319010417,9.0234375 0.227864583,8.76139323 0.13671875,8.51074219 C0.0455729167,8.26009115 0,8.08919271 0,7.99804688 Z" id="Path"></path><path d="M59.8144531,35.1367188 C59.358724,36.8229167 58.7548828,38.680013 58.0029297,40.7080078 C57.2509766,42.7360026 56.3167318,44.6386719 55.2001953,46.4160156 C54.0836589,48.1933594 52.750651,49.6858724 51.2011719,50.8935547 C49.6516927,52.101237 47.8515625,52.7050781 45.8007813,52.7050781 C44.2057292,52.7050781 42.9182943,52.3746745 41.9384766,51.7138672 C40.9586589,51.0530599 40.1953125,50.164388 39.6484375,49.0478516 C39.1015625,47.9313151 38.7027995,46.7008464 38.4521484,45.3564453 C38.2014974,44.0120443 38.030599,42.65625 37.9394531,41.2890625 C37.8938802,40.8333333 37.8483073,39.9104818 37.8027344,38.5205078 C37.7571615,37.1305339 37.7115885,35.4899089 37.6660156,33.5986328 C37.6204427,31.7073568 37.5634766,29.6907552 37.4951172,27.5488281 C37.4267578,25.406901 37.3583984,23.4016927 37.2900391,21.5332031 C37.2216797,19.6647135 37.1647135,18.0240885 37.1191406,16.6113281 C37.0735677,15.1985677 37.0507813,14.2643229 37.0507813,13.8085938 C37.0052083,13.3528646 37.0279948,12.9996745 37.1191406,12.7490234 C37.2102865,12.4983724 37.3697917,12.3160807 37.5976563,12.2021484 C37.8255208,12.0882161 38.0875651,12.0198568 38.3837891,11.9970703 C38.680013,11.9742839 38.9420573,11.9628906 39.1699219,11.9628906 L39.7167969,11.9628906 C39.9902344,11.9628906 40.2408854,11.9856771 40.46875,12.03125 C40.6966146,12.0768229 40.9016927,12.179362 41.0839844,12.3388672 C41.266276,12.4983724 41.3574219,12.7148438 41.3574219,12.9882812 L41.3574219,42.109375 C41.3574219,42.9296875 41.4827474,43.75 41.7333984,44.5703125 C41.9840495,45.390625 42.3372396,46.1539714 42.7929688,46.8603516 C43.2486979,47.5667318 43.8183594,48.1477865 44.5019531,48.6035156 C45.1855469,49.0592448 45.9602865,49.2871094 46.8261719,49.2871094 C48.5579427,49.1503906 50.0504557,48.2275391 51.3037109,46.5185547 C52.5569661,44.8095703 53.6393229,42.65625 54.5507813,40.0585938 C55.4622396,37.4609375 56.2141927,34.6354167 56.8066406,31.5820312 C57.3990885,28.5286458 57.9231771,25.5891927 58.3789063,22.7636719 C58.8346354,19.938151 59.2333984,17.4316406 59.5751953,15.2441406 C59.9169922,13.0566406 60.2929688,11.5299479 60.703125,10.6640625 C61.5690104,9.88932292 62.2526042,9.69563802 62.7539063,10.0830078 C63.2552083,10.4703776 63.6311849,11.0628255 63.8818359,11.8603516 C64.132487,12.6578776 64.280599,13.523763 64.3261719,14.4580078 C64.3717448,15.3922526 64.3261719,16.0644531 64.1894531,16.4746094 C64.1894531,19.5279948 64.0413411,22.5585938 63.7451172,25.5664062 C63.4488932,28.5742188 63.3007813,31.6276042 63.3007813,34.7265625 C63.3007813,36.6861979 63.3919271,38.6458333 63.5742188,40.6054688 C63.7565104,42.5651042 63.9615885,44.5247396 64.1894531,46.484375 C64.4173177,48.4440104 64.6223958,50.3922526 64.8046875,52.3291016 C64.9869792,54.2659505 65.078125,56.1914062 65.078125,58.1054688 C65.078125,58.4700521 65.0553385,58.8460286 65.0097656,59.2333984 C64.9641927,59.6207682 64.8616536,59.9739583 64.7021484,60.2929688 C64.5426432,60.6119792 64.3261719,60.8854167 64.0527344,61.1132812 C63.7792969,61.3411458 63.3919271,61.4550781 62.890625,61.4550781 C62.890625,61.4550781 62.8336589,61.4436849 62.7197266,61.4208984 C62.6057943,61.398112 62.5032552,61.3867188 62.4121094,61.3867188 L59.8144531,35.1367188 Z" id="Path"></path><path d="M103.496094,7.99804688 C103.313802,7.90690104 103.051758,8.41959635 102.709961,9.53613281 C102.368164,10.6526693 101.923828,12.0882161 101.376953,13.8427734 C100.830078,15.5973307 100.249023,17.5797526 99.6337891,19.7900391 C99.0185547,22.0003255 98.3463542,24.1992188 97.6171875,26.3867188 C96.8880208,28.5742188 96.1588542,30.6136068 95.4296875,32.5048828 C94.7005208,34.3961589 93.9713542,35.8886719 93.2421875,36.9824219 C92.5130208,38.0761719 91.8294271,38.680013 91.1914062,38.7939453 C90.5533854,38.9078776 89.983724,38.2584635 89.4824219,36.8457031 C89.1178385,36.2076823 88.6051432,35.1936849 87.9443359,33.8037109 C87.2835286,32.413737 86.5201823,30.8528646 85.6542969,29.1210937 C84.7884115,27.3893229 83.8769531,25.5664062 82.9199219,23.6523438 C81.9628906,21.7382812 81.0628255,19.9267578 80.2197266,18.2177734 C79.3766276,16.5087891 78.601888,14.9707031 77.8955078,13.6035156 C77.1891276,12.2363281 76.6764323,11.233724 76.3574219,10.5957031 C75.8105469,9.59309896 75.320638,8.78417969 74.8876953,8.16894531 C74.4547526,7.55371094 73.7825521,7.24609375 72.8710938,7.24609375 C72.8710938,10.4361979 73.0533854,13.9453125 73.4179688,17.7734375 C73.7825521,21.6015625 74.1813151,25.4752604 74.6142578,29.3945312 C75.0472005,33.3138021 75.4459635,37.1761068 75.8105469,40.9814453 C76.1751302,44.7867839 76.3574219,48.3072917 76.3574219,51.5429688 C76.5397135,51.953125 76.4827474,52.3404948 76.1865234,52.7050781 C75.8902995,53.0696615 75.4801432,53.343099 74.9560547,53.5253906 C74.4319661,53.7076823 73.8623047,53.7190755 73.2470703,53.5595703 C72.6318359,53.4000651 72.1191406,53.0240885 71.7089844,52.4316406 C71.2988281,48.375651 71.0823568,44.2399089 71.0595703,40.0244141 C71.0367839,35.8089193 71.0026042,31.5820312 70.9570312,27.34375 C70.9114583,23.1054688 70.7291667,18.8557943 70.4101562,14.5947266 C70.0911458,10.3336589 69.453125,6.08398438 68.4960938,1.84570313 C68.4505208,1.02539062 68.5872396,0.512695312 68.90625,0.307617188 C69.2252604,0.102539062 69.6354167,0 70.1367188,0 C71.2304688,0 72.2216797,0.262044271 73.1103516,0.786132812 C73.9990234,1.31022135 74.8079427,1.97102865 75.5371094,2.76855469 C76.266276,3.56608073 76.9156901,4.44335938 77.4853516,5.40039062 C78.055013,6.35742188 78.5677083,7.22330729 79.0234375,7.99804688 C79.3880208,8.59049479 79.8893229,9.52473958 80.5273438,10.8007812 L82.7148438,15.2441406 C83.5351562,16.8847656 84.3896484,18.6051432 85.2783203,20.4052734 C86.1669922,22.2054036 87.0214844,23.914388 87.8417969,25.5322266 C88.6621094,27.1500651 89.4140625,28.585612 90.0976562,29.8388672 C90.78125,31.0921224 91.3053385,31.9921875 91.6699219,32.5390625 C91.8522135,32.5390625 92.0117188,32.4707031 92.1484375,32.3339844 C92.2851562,32.1972656 92.4788411,31.8098958 92.7294922,31.171875 C92.9801432,30.5338542 93.3219401,29.5540365 93.7548828,28.2324219 C94.1878255,26.9108073 94.7916667,25.0878906 95.5664062,22.7636719 C96.3411458,20.4394531 97.2981771,17.5 98.4375,13.9453125 C99.5768229,10.390625 100.966797,6.06119792 102.607422,0.95703125 C102.698568,0.729166667 102.994792,0.524088542 103.496094,0.341796875 C103.997396,0.159505208 104.453125,0.068359375 104.863281,0.068359375 C105.273438,0.068359375 105.558268,0.205078125 105.717773,0.478515625 C105.877279,0.751953125 106.002604,1.20768229 106.09375,1.84570313 C106.503906,5.71940104 106.83431,9.7639974 107.084961,13.9794922 C107.335612,18.194987 107.666016,22.4560547 108.076172,26.7626953 C108.486328,31.0693359 108.999023,35.3417969 109.614258,39.5800781 C110.229492,43.8183594 111.083984,47.8515625 112.177734,51.6796875 L107.460938,53.5253906 L103.496094,7.99804688 Z" id="Path"></path><path d="M117.783203,2.39257812 C117.783203,2.02799479 117.908529,1.76595052 118.15918,1.60644531 C118.409831,1.4469401 118.706055,1.35579427 119.047852,1.33300781 C119.389648,1.31022135 119.754232,1.32161458 120.141602,1.3671875 C120.528971,1.41276042 120.859375,1.43554688 121.132812,1.43554688 C121.360677,1.98242188 121.554362,3.06477865 121.713867,4.68261719 C121.873372,6.30045573 122.032878,8.26009115 122.192383,10.5615234 C122.351888,12.8629557 122.46582,15.4036458 122.53418,18.1835938 C122.602539,20.9635417 122.670898,23.7776693 122.739258,26.6259766 C122.807617,29.4742839 122.85319,32.265625 122.875977,35 C122.898763,37.734375 122.921549,40.2294922 122.944336,42.4853516 C122.967122,44.7412109 122.978516,46.6666667 122.978516,48.2617188 L122.978516,51.3378906 C122.932943,52.249349 122.739258,52.7848307 122.397461,52.9443359 C122.055664,53.1038411 121.269531,53.0013021 120.039062,52.6367188 C119.902344,52.5911458 119.788411,51.9075521 119.697266,50.5859375 C119.60612,49.2643229 119.53776,47.5211589 119.492188,45.3564453 C119.446615,43.1917318 119.401042,40.7080078 119.355469,37.9052734 C119.309896,35.1025391 119.264323,32.2200521 119.21875,29.2578125 C119.173177,26.2955729 119.116211,23.3333333 119.047852,20.3710938 C118.979492,17.4088542 118.89974,14.7086589 118.808594,12.2705078 C118.717448,9.83235677 118.592122,7.7360026 118.432617,5.98144531 C118.273112,4.22688802 118.056641,3.03059896 117.783203,2.39257812 Z" id="Path"></path></g></svg>