<svg width="512px" height="512px" viewBox="0 0 512 512" version="1.1" xmlns="http://www.w3.org/2000/svg" aria-hidden="true" role="img" focusable="false" preserveAspectRatio="xMidYMid meet"><rect fill="#49CC68" x="0" y="0" width="512" height="512" rx="120"></rect><g transform="translate(80.023438, 167.265625)" fill="#FFFFFF" fill-rule="nonzero" stroke="#FFFFFF" stroke-width="6"><path d="M0,22.8515625 C0.260416667,21.4192708 1.00911458,20.1822917 2.24609375,19.140625 C3.48307292,18.0989583 4.81770833,17.578125 6.25,17.578125 C7.03125,17.578125 7.77994792,17.8710938 8.49609375,18.4570312 C9.21223958,19.0429688 9.83072917,19.7591146 10.3515625,20.6054688 C10.8723958,21.4518229 11.328125,22.2981771 11.71875,23.1445312 C12.109375,23.9908854 12.3046875,24.7395833 12.3046875,25.390625 L19.921875,92.7734375 C20.703125,91.9921875 22.3632812,89.4856771 24.9023438,85.2539062 C27.4414062,81.0221354 30.4361979,76.0742188 33.8867188,70.4101562 C37.3372396,64.7460938 41.0481771,58.8541667 45.0195312,52.734375 C48.9908854,46.6145833 52.8645833,41.3085938 56.640625,36.8164062 C60.4166667,32.3242188 63.8020833,29.1341146 66.796875,27.2460938 C69.7916667,25.3580729 72.1354167,25.7161458 73.828125,28.3203125 C67.96875,37.6953125 62.8255208,45.6054688 58.3984375,52.0507812 C53.9713542,58.4960938 50.0976562,64.0299479 46.7773438,68.6523438 C43.4570312,73.2747396 40.6575521,77.2460938 38.3789062,80.5664062 C36.1002604,83.8867188 34.1145833,87.0768229 32.421875,90.1367187 C30.7291667,93.1966146 29.296875,96.3867188 28.125,99.7070312 C26.953125,103.027344 25.8463542,106.966146 24.8046875,111.523438 C24.8046875,112.044271 24.9674479,112.467448 25.2929688,112.792969 C25.6184896,113.11849 26.5299479,113.509115 28.0273438,113.964844 C29.5247396,114.420573 31.8359375,114.778646 34.9609375,115.039062 C38.0859375,115.299479 42.3828125,115.559896 47.8515625,115.820312 C53.3203125,116.080729 60.2213542,116.276042 68.5546875,116.40625 C76.8880208,116.536458 87.109375,116.601562 99.21875,116.601562 C99.21875,118.554688 98.7304688,120.47526 97.7539062,122.363281 C96.7773438,124.251302 94.9869792,125.195312 92.3828125,125.195312 L22.4609375,125.195312 C23.5026042,128.841146 24.2513021,132.454427 24.7070312,136.035156 C25.1627604,139.615885 25.390625,143.164062 25.390625,146.679688 C25.390625,149.023438 24.9674479,150.227865 24.1210938,150.292969 C23.2747396,150.358073 21.4192708,150.390625 18.5546875,150.390625 C18.5546875,150.390625 18.3919271,150.358073 18.0664062,150.292969 C17.7408854,150.227865 17.5130208,150.195312 17.3828125,150.195312 C17.1223958,149.283854 16.7317708,147.65625 16.2109375,145.3125 C15.6901042,142.96875 15.1692708,140.494792 14.6484375,137.890625 C14.1276042,135.286458 13.6393229,132.779948 13.1835938,130.371094 C12.7278646,127.96224 12.4348958,126.236979 12.3046875,125.195312 C12.1744792,123.893229 11.9140625,121.09375 11.5234375,116.796875 C11.1328125,112.5 10.6770833,107.552083 10.15625,101.953125 C9.63541667,96.3541667 9.11458333,90.3645833 8.59375,83.984375 C8.07291667,77.6041667 7.55208333,71.5820312 7.03125,65.9179688 C6.51041667,60.2539062 6.0546875,55.3385417 5.6640625,51.171875 L4.8828125,42.7734375 C4.8828125,42.3828125 4.78515625,41.6341146 4.58984375,40.5273438 C4.39453125,39.4205729 4.13411458,38.2161458 3.80859375,36.9140625 C3.48307292,35.6119792 3.22265625,34.3098958 3.02734375,33.0078125 C2.83203125,31.7057292 2.66927083,30.7942708 2.5390625,30.2734375 C2.5390625,30.1432292 2.37630208,29.6875 2.05078125,28.90625 C1.72526042,28.125 1.43229167,27.34375 1.171875,26.5625 C0.911458333,25.78125 0.651041667,25.0325521 0.390625,24.3164062 C0.130208333,23.6002604 0,23.1119792 0,22.8515625 Z" id="Path"></path><path d="M170.898438,100.390625 C169.596354,105.208333 167.871094,110.514323 165.722656,116.308594 C163.574219,122.102865 160.904948,127.539062 157.714844,132.617188 C154.52474,137.695312 150.716146,141.959635 146.289062,145.410156 C141.861979,148.860677 136.71875,150.585938 130.859375,150.585938 C126.302083,150.585938 122.623698,149.641927 119.824219,147.753906 C117.02474,145.865885 114.84375,143.326823 113.28125,140.136719 C111.71875,136.946615 110.579427,133.43099 109.863281,129.589844 C109.147135,125.748698 108.658854,121.875 108.398438,117.96875 C108.268229,116.666667 108.138021,114.029948 108.007812,110.058594 C107.877604,106.08724 107.747396,101.39974 107.617188,95.9960938 C107.486979,90.5924479 107.324219,84.8307292 107.128906,78.7109375 C106.933594,72.5911458 106.738281,66.8619792 106.542969,61.5234375 C106.347656,56.1848958 106.184896,51.4973958 106.054688,47.4609375 C105.924479,43.4244792 105.859375,40.7552083 105.859375,39.453125 C105.729167,38.1510417 105.794271,37.1419271 106.054688,36.4257812 C106.315104,35.7096354 106.770833,35.1888021 107.421875,34.8632812 C108.072917,34.5377604 108.821615,34.3424479 109.667969,34.2773438 C110.514323,34.2122396 111.263021,34.1796875 111.914062,34.1796875 L113.476562,34.1796875 C114.257812,34.1796875 114.973958,34.2447917 115.625,34.375 C116.276042,34.5052083 116.861979,34.7981771 117.382812,35.2539062 C117.903646,35.7096354 118.164062,36.328125 118.164062,37.109375 L118.164062,120.3125 C118.164062,122.65625 118.522135,125 119.238281,127.34375 C119.954427,129.6875 120.963542,131.86849 122.265625,133.886719 C123.567708,135.904948 125.195312,137.565104 127.148438,138.867188 C129.101562,140.169271 131.315104,140.820312 133.789062,140.820312 C138.736979,140.429688 143.001302,137.792969 146.582031,132.910156 C150.16276,128.027344 153.255208,121.875 155.859375,114.453125 C158.463542,107.03125 160.611979,98.9583333 162.304688,90.234375 C163.997396,81.5104167 165.494792,73.1119792 166.796875,65.0390625 C168.098958,56.9661458 169.238281,49.8046875 170.214844,43.5546875 C171.191406,37.3046875 172.265625,32.9427083 173.4375,30.46875 C175.911458,28.2552083 177.864583,27.7018229 179.296875,28.8085938 C180.729167,29.9153646 181.803385,31.6080729 182.519531,33.8867188 C183.235677,36.1653646 183.658854,38.6393229 183.789062,41.3085938 C183.919271,43.9778646 183.789062,45.8984375 183.398438,47.0703125 C183.398438,55.7942708 182.97526,64.453125 182.128906,73.046875 C181.282552,81.640625 180.859375,90.3645833 180.859375,99.21875 C180.859375,104.817708 181.119792,110.416667 181.640625,116.015625 C182.161458,121.614583 182.747396,127.213542 183.398438,132.8125 C184.049479,138.411458 184.635417,143.977865 185.15625,149.511719 C185.677083,155.045573 185.9375,160.546875 185.9375,166.015625 C185.9375,167.057292 185.872396,168.13151 185.742188,169.238281 C185.611979,170.345052 185.31901,171.354167 184.863281,172.265625 C184.407552,173.177083 183.789062,173.958333 183.007812,174.609375 C182.226562,175.260417 181.119792,175.585938 179.6875,175.585938 C179.6875,175.585938 179.52474,175.553385 179.199219,175.488281 C178.873698,175.423177 178.580729,175.390625 178.320312,175.390625 L170.898438,100.390625 Z" id="Path"></path><path d="M295.703125,22.8515625 C295.182292,22.5911458 294.433594,24.0559896 293.457031,27.2460938 C292.480469,30.4361979 291.210938,34.5377604 289.648438,39.5507812 C288.085938,44.5638021 286.425781,50.2278646 284.667969,56.5429688 C282.910156,62.8580729 280.989583,69.140625 278.90625,75.390625 C276.822917,81.640625 274.739583,87.4674479 272.65625,92.8710938 C270.572917,98.2747396 268.489583,102.539062 266.40625,105.664063 C264.322917,108.789062 262.369792,110.514323 260.546875,110.839844 C258.723958,111.165365 257.096354,109.309896 255.664062,105.273438 C254.622396,103.450521 253.157552,100.553385 251.269531,96.5820312 C249.38151,92.6106771 247.200521,88.1510417 244.726562,83.203125 C242.252604,78.2552083 239.648438,73.046875 236.914062,67.578125 C234.179688,62.109375 231.608073,56.9335938 229.199219,52.0507812 C226.790365,47.1679688 224.576823,42.7734375 222.558594,38.8671875 C220.540365,34.9609375 219.075521,32.0963542 218.164062,30.2734375 C216.601562,27.4088542 215.201823,25.0976562 213.964844,23.3398438 C212.727865,21.5820312 210.807292,20.703125 208.203125,20.703125 C208.203125,29.8177083 208.723958,39.84375 209.765625,50.78125 C210.807292,61.71875 211.946615,72.7864583 213.183594,83.984375 C214.420573,95.1822917 215.559896,106.217448 216.601562,117.089844 C217.643229,127.96224 218.164062,138.020833 218.164062,147.265625 C218.684896,148.4375 218.522135,149.544271 217.675781,150.585938 C216.829427,151.627604 215.657552,152.408854 214.160156,152.929688 C212.66276,153.450521 211.035156,153.483073 209.277344,153.027344 C207.519531,152.571615 206.054688,151.497396 204.882812,149.804688 C203.710938,138.216146 203.092448,126.39974 203.027344,114.355469 C202.96224,102.311198 202.864583,90.234375 202.734375,78.125 C202.604167,66.015625 202.083333,53.8736979 201.171875,41.6992188 C200.260417,29.5247396 198.4375,17.3828125 195.703125,5.2734375 C195.572917,2.9296875 195.963542,1.46484375 196.875,0.87890625 C197.786458,0.29296875 198.958333,0 200.390625,0 C203.515625,0 206.347656,0.748697917 208.886719,2.24609375 C211.425781,3.74348958 213.736979,5.63151042 215.820312,7.91015625 C217.903646,10.1888021 219.759115,12.6953125 221.386719,15.4296875 C223.014323,18.1640625 224.479167,20.6380208 225.78125,22.8515625 C226.822917,24.5442708 228.255208,27.2135417 230.078125,30.859375 L236.328125,43.5546875 C238.671875,48.2421875 241.113281,53.1575521 243.652344,58.3007812 C246.191406,63.4440104 248.632812,68.3268229 250.976562,72.9492188 C253.320312,77.5716146 255.46875,81.6731771 257.421875,85.2539063 C259.375,88.8346354 260.872396,91.40625 261.914062,92.96875 C262.434896,92.96875 262.890625,92.7734375 263.28125,92.3828125 C263.671875,91.9921875 264.22526,90.8854167 264.941406,89.0625 C265.657552,87.2395833 266.634115,84.4401042 267.871094,80.6640625 C269.108073,76.8880208 270.833333,71.6796875 273.046875,65.0390625 C275.260417,58.3984375 277.994792,50 281.25,39.84375 C284.505208,29.6875 288.476562,17.3177083 293.164062,2.734375 C293.424479,2.08333333 294.270833,1.49739583 295.703125,0.9765625 C297.135417,0.455729167 298.4375,0.1953125 299.609375,0.1953125 C300.78125,0.1953125 301.595052,0.5859375 302.050781,1.3671875 C302.50651,2.1484375 302.864583,3.45052083 303.125,5.2734375 C304.296875,16.3411458 305.240885,27.8971354 305.957031,39.9414062 C306.673177,51.9856771 307.617188,64.1601562 308.789062,76.4648438 C309.960938,88.7695312 311.425781,100.976562 313.183594,113.085938 C314.941406,125.195312 317.382812,136.71875 320.507812,147.65625 L307.03125,152.929688 L295.703125,22.8515625 Z" id="Path"></path><path d="M336.523438,6.8359375 C336.523438,5.79427083 336.88151,5.04557292 337.597656,4.58984375 C338.313802,4.13411458 339.160156,3.87369792 340.136719,3.80859375 C341.113281,3.74348958 342.154948,3.77604167 343.261719,3.90625 C344.36849,4.03645833 345.3125,4.1015625 346.09375,4.1015625 C346.744792,5.6640625 347.298177,8.75651042 347.753906,13.3789062 C348.209635,18.0013021 348.665365,23.6002604 349.121094,30.1757812 C349.576823,36.7513021 349.902344,44.0104167 350.097656,51.953125 C350.292969,59.8958333 350.488281,67.9361979 350.683594,76.0742188 C350.878906,84.2122396 351.009115,92.1875 351.074219,100 C351.139323,107.8125 351.204427,114.941406 351.269531,121.386719 C351.334635,127.832031 351.367188,133.333333 351.367188,137.890625 L351.367188,146.679688 C351.236979,149.283854 350.683594,150.813802 349.707031,151.269531 C348.730469,151.72526 346.484375,151.432292 342.96875,150.390625 C342.578125,150.260417 342.252604,148.307292 341.992188,144.53125 C341.731771,140.755208 341.536458,135.77474 341.40625,129.589844 C341.276042,123.404948 341.145833,116.308594 341.015625,108.300781 C340.885417,100.292969 340.755208,92.0572917 340.625,83.59375 C340.494792,75.1302083 340.332031,66.6666667 340.136719,58.203125 C339.941406,49.7395833 339.713542,42.0247396 339.453125,35.0585938 C339.192708,28.0924479 338.834635,22.1028646 338.378906,17.0898438 C337.923177,12.0768229 337.304688,8.65885417 336.523438,6.8359375 Z" id="Path"></path></g></svg>