
<svg width="256px" height="256px" viewBox="0 0 256 256" version="1.1" xmlns="http://www.w3.org/2000/svg" aria-hidden="true" role="img" focusable="false" preserveAspectRatio="xMidYMid meet"><rect fill="#49CC68" x="0" y="0" width="256" height="256" rx="60"></rect><g transform="translate(48.810547, 84.269531)" fill="#FFFFFF" fill-rule="nonzero" stroke="#FFFFFF" stroke-width="5"><path d="M0,10.2832031 C0.1171875,9.63867188 0.454101562,9.08203125 1.01074219,8.61328125 C1.56738281,8.14453125 2.16796875,7.91015625 2.8125,7.91015625 C3.1640625,7.91015625 3.50097656,8.04199219 3.82324219,8.30566406 C4.14550781,8.56933594 4.42382812,8.89160156 4.65820312,9.27246094 C4.89257812,9.65332031 5.09765625,10.0341797 5.2734375,10.4150391 C5.44921875,10.7958984 5.53710938,11.1328125 5.53710938,11.4257812 L8.96484375,41.7480469 C9.31640625,41.3964844 10.0634766,40.2685547 11.2060547,38.3642578 C12.3486328,36.4599609 13.6962891,34.2333984 15.2490234,31.6845703 C16.8017578,29.1357422 18.4716797,26.484375 20.2587891,23.7304688 C22.0458984,20.9765625 23.7890625,18.5888672 25.4882812,16.5673828 C27.1875,14.5458984 28.7109375,13.1103516 30.0585938,12.2607422 C31.40625,11.4111328 32.4609375,11.5722656 33.2226562,12.7441406 C30.5859375,16.9628906 28.2714844,20.5224609 26.2792969,23.4228516 C24.2871094,26.3232422 22.5439453,28.8134766 21.0498047,30.8935547 C19.5556641,32.9736328 18.2958984,34.7607422 17.2705078,36.2548828 C16.2451172,37.7490234 15.3515625,39.1845703 14.5898437,40.5615234 C13.828125,41.9384766 13.1835937,43.3740234 12.65625,44.8681641 C12.1289062,46.3623047 11.6308594,48.1347656 11.1621094,50.1855469 C11.1621094,50.4199219 11.2353516,50.6103516 11.3818359,50.7568359 C11.5283203,50.9033203 11.9384766,51.0791016 12.6123047,51.2841797 C13.2861328,51.4892578 14.3261719,51.6503906 15.7324219,51.7675781 C17.1386719,51.8847656 19.0722656,52.0019531 21.5332031,52.1191406 C23.9941406,52.2363281 27.0996094,52.3242188 30.8496094,52.3828125 C34.5996094,52.4414062 39.1992188,52.4707031 44.6484375,52.4707031 C44.6484375,53.3496094 44.4287109,54.2138672 43.9892578,55.0634766 C43.5498047,55.9130859 42.7441406,56.3378906 41.5722656,56.3378906 L10.1074219,56.3378906 C10.5761719,57.9785156 10.9130859,59.6044922 11.1181641,61.2158203 C11.3232422,62.8271484 11.4257812,64.4238281 11.4257812,66.0058594 C11.4257812,67.0605469 11.2353516,67.6025391 10.8544922,67.6318359 C10.4736328,67.6611328 9.63867188,67.6757812 8.34960938,67.6757812 C8.34960938,67.6757812 8.27636719,67.6611328 8.12988281,67.6318359 C7.98339844,67.6025391 7.88085938,67.5878906 7.82226562,67.5878906 C7.70507812,67.1777344 7.52929687,66.4453125 7.29492187,65.390625 C7.06054687,64.3359375 6.82617187,63.2226562 6.59179687,62.0507812 C6.35742187,60.8789062 6.13769531,59.7509766 5.93261719,58.6669922 C5.72753906,57.5830078 5.59570312,56.8066406 5.53710938,56.3378906 C5.47851562,55.7519531 5.36132812,54.4921875 5.18554688,52.5585938 C5.00976562,50.625 4.8046875,48.3984375 4.5703125,45.8789062 C4.3359375,43.359375 4.1015625,40.6640625 3.8671875,37.7929688 C3.6328125,34.921875 3.3984375,32.2119141 3.1640625,29.6630859 C2.9296875,27.1142578 2.72460938,24.9023438 2.54882812,23.0273438 L2.19726562,19.2480469 C2.19726562,19.0722656 2.15332031,18.7353516 2.06542969,18.2373047 C1.97753906,17.7392578 1.86035156,17.1972656 1.71386719,16.6113281 C1.56738281,16.0253906 1.45019531,15.4394531 1.36230469,14.8535156 C1.27441406,14.2675781 1.20117188,13.8574219 1.14257812,13.6230469 C1.14257812,13.5644531 1.06933594,13.359375 0.922851563,13.0078125 C0.776367188,12.65625 0.64453125,12.3046875 0.52734375,11.953125 C0.41015625,11.6015625 0.29296875,11.2646484 0.17578125,10.9423828 C0.05859375,10.6201172 0,10.4003906 0,10.2832031 Z" id="Path"></path><path d="M76.9042969,45.1757812 C76.3183594,47.34375 75.5419922,49.7314453 74.5751953,52.3388672 C73.6083984,54.9462891 72.4072266,57.3925781 70.9716797,59.6777344 C69.5361328,61.9628906 67.8222656,63.8818359 65.8300781,65.4345703 C63.8378906,66.9873047 61.5234375,67.7636719 58.8867188,67.7636719 C56.8359375,67.7636719 55.1806641,67.3388672 53.9208984,66.4892578 C52.6611328,65.6396484 51.6796875,64.4970703 50.9765625,63.0615234 C50.2734375,61.6259766 49.7607422,60.0439453 49.4384766,58.3154297 C49.1162109,56.5869141 48.8964844,54.84375 48.7792969,53.0859375 C48.7207031,52.5 48.6621094,51.3134766 48.6035156,49.5263672 C48.5449219,47.7392578 48.4863281,45.6298828 48.4277344,43.1982422 C48.3691406,40.7666016 48.2958984,38.1738281 48.2080078,35.4199219 C48.1201172,32.6660156 48.0322266,30.0878906 47.9443359,27.6855469 C47.8564453,25.2832031 47.7832031,23.1738281 47.7246094,21.3574219 C47.6660156,19.5410156 47.6367188,18.3398438 47.6367188,17.7539062 C47.578125,17.1679688 47.6074219,16.7138672 47.7246094,16.3916016 C47.8417969,16.0693359 48.046875,15.8349609 48.3398438,15.6884766 C48.6328125,15.5419922 48.9697266,15.4541016 49.3505859,15.4248047 C49.7314453,15.3955078 50.0683594,15.3808594 50.3613281,15.3808594 L51.0644531,15.3808594 C51.4160156,15.3808594 51.7382812,15.4101562 52.03125,15.46875 C52.3242188,15.5273438 52.5878906,15.6591797 52.8222656,15.8642578 C53.0566406,16.0693359 53.1738281,16.3476562 53.1738281,16.6992188 L53.1738281,54.140625 C53.1738281,55.1953125 53.3349609,56.25 53.6572266,57.3046875 C53.9794922,58.359375 54.4335938,59.3408203 55.0195312,60.2490234 C55.6054688,61.1572266 56.3378906,61.9042969 57.2167969,62.4902344 C58.0957031,63.0761719 59.0917969,63.3691406 60.2050781,63.3691406 C62.4316406,63.1933594 64.3505859,62.0068359 65.9619141,59.8095703 C67.5732422,57.6123047 68.9648438,54.84375 70.1367188,51.5039062 C71.3085938,48.1640625 72.2753906,44.53125 73.0371094,40.6054688 C73.7988281,36.6796875 74.4726562,32.9003906 75.0585938,29.2675781 C75.6445312,25.6347656 76.1572266,22.4121094 76.5966797,19.5996094 C77.0361328,16.7871094 77.5195312,14.8242188 78.046875,13.7109375 C79.1601562,12.7148438 80.0390625,12.4658203 80.6835938,12.9638672 C81.328125,13.4619141 81.8115234,14.2236328 82.1337891,15.2490234 C82.4560547,16.2744141 82.6464844,17.3876953 82.7050781,18.5888672 C82.7636719,19.7900391 82.7050781,20.6542969 82.5292969,21.1816406 C82.5292969,25.1074219 82.3388672,29.0039062 81.9580078,32.8710938 C81.5771484,36.7382812 81.3867188,40.6640625 81.3867188,44.6484375 C81.3867188,47.1679688 81.5039062,49.6875 81.7382812,52.2070312 C81.9726562,54.7265625 82.2363281,57.2460938 82.5292969,59.765625 C82.8222656,62.2851562 83.0859375,64.7900391 83.3203125,67.2802734 C83.5546875,69.7705078 83.671875,72.2460938 83.671875,74.7070312 C83.671875,75.1757812 83.6425781,75.6591797 83.5839844,76.1572266 C83.5253906,76.6552734 83.3935547,77.109375 83.1884766,77.5195312 C82.9833984,77.9296875 82.7050781,78.28125 82.3535156,78.5742188 C82.0019531,78.8671875 81.5039062,79.0136719 80.859375,79.0136719 C80.859375,79.0136719 80.7861328,78.9990234 80.6396484,78.9697266 C80.4931641,78.9404297 80.3613281,78.9257812 80.2441406,78.9257812 L76.9042969,45.1757812 Z" id="Path"></path><path d="M133.066406,10.2832031 C132.832031,10.1660156 132.495117,10.8251953 132.055664,12.2607422 C131.616211,13.6962891 131.044922,15.5419922 130.341797,17.7978516 C129.638672,20.0537109 128.891602,22.6025391 128.100586,25.4443359 C127.30957,28.2861328 126.445312,31.1132812 125.507812,33.9257812 C124.570312,36.7382812 123.632812,39.3603516 122.695312,41.7919922 C121.757812,44.2236328 120.820312,46.1425781 119.882812,47.5488281 C118.945312,48.9550781 118.066406,49.7314453 117.246094,49.8779297 C116.425781,50.0244141 115.693359,49.1894531 115.048828,47.3730469 C114.580078,46.5527344 113.920898,45.2490234 113.071289,43.4619141 C112.22168,41.6748047 111.240234,39.6679688 110.126953,37.4414062 C109.013672,35.2148438 107.841797,32.8710938 106.611328,30.4101562 C105.380859,27.9492188 104.223633,25.6201172 103.139648,23.4228516 C102.055664,21.2255859 101.05957,19.2480469 100.151367,17.4902344 C99.2431641,15.7324219 98.5839844,14.4433594 98.1738281,13.6230469 C97.4707031,12.3339844 96.8408203,11.2939453 96.2841797,10.5029297 C95.7275391,9.71191406 94.8632812,9.31640625 93.6914062,9.31640625 C93.6914062,13.4179688 93.9257812,17.9296875 94.3945312,22.8515625 C94.8632812,27.7734375 95.3759766,32.7539062 95.9326172,37.7929688 C96.4892578,42.8320312 97.0019531,47.7978516 97.4707031,52.6904297 C97.9394531,57.5830078 98.1738281,62.109375 98.1738281,66.2695312 C98.4082031,66.796875 98.3349609,67.2949219 97.9541016,67.7636719 C97.5732422,68.2324219 97.0458984,68.5839844 96.3720703,68.8183594 C95.6982422,69.0527344 94.9658203,69.0673828 94.1748047,68.8623047 C93.3837891,68.6572266 92.7246094,68.1738281 92.1972656,67.4121094 C91.6699219,62.1972656 91.3916016,56.8798828 91.3623047,51.4599609 C91.3330078,46.0400391 91.2890625,40.6054688 91.2304688,35.15625 C91.171875,29.7070312 90.9375,24.2431641 90.5273438,18.7646484 C90.1171875,13.2861328 89.296875,7.82226562 88.0664062,2.37304688 C88.0078125,1.31835938 88.1835938,0.659179688 88.59375,0.395507812 C89.0039062,0.131835938 89.53125,0 90.1757812,0 C91.5820312,0 92.8564453,0.336914062 93.9990234,1.01074219 C95.1416016,1.68457031 96.1816406,2.53417969 97.1191406,3.55957031 C98.0566406,4.58496094 98.8916016,5.71289062 99.6240234,6.94335938 C100.356445,8.17382812 101.015625,9.28710938 101.601562,10.2832031 C102.070312,11.0449219 102.714844,12.2460938 103.535156,13.8867188 L106.347656,19.5996094 C107.402344,21.7089844 108.500977,23.9208984 109.643555,26.2353516 C110.786133,28.5498047 111.884766,30.7470703 112.939453,32.8271484 C113.994141,34.9072266 114.960938,36.7529297 115.839844,38.3642578 C116.71875,39.9755859 117.392578,41.1328125 117.861328,41.8359375 C118.095703,41.8359375 118.300781,41.7480469 118.476562,41.5722656 C118.652344,41.3964844 118.901367,40.8984375 119.223633,40.078125 C119.545898,39.2578125 119.985352,37.9980469 120.541992,36.2988281 C121.098633,34.5996094 121.875,32.2558594 122.871094,29.2675781 C123.867188,26.2792969 125.097656,22.5 126.5625,17.9296875 C128.027344,13.359375 129.814453,7.79296875 131.923828,1.23046875 C132.041016,0.9375 132.421875,0.673828125 133.066406,0.439453125 C133.710938,0.205078125 134.296875,0.087890625 134.824219,0.087890625 C135.351562,0.087890625 135.717773,0.263671875 135.922852,0.615234375 C136.12793,0.966796875 136.289062,1.55273438 136.40625,2.37304688 C136.933594,7.35351562 137.358398,12.5537109 137.680664,17.9736328 C138.00293,23.3935547 138.427734,28.8720703 138.955078,34.4091797 C139.482422,39.9462891 140.141602,45.4394531 140.932617,50.8886719 C141.723633,56.3378906 142.822266,61.5234375 144.228516,66.4453125 L138.164062,68.8183594 L133.066406,10.2832031 Z" id="Path"></path><path d="M151.435547,3.07617188 C151.435547,2.60742188 151.59668,2.27050781 151.918945,2.06542969 C152.241211,1.86035156 152.62207,1.74316406 153.061523,1.71386719 C153.500977,1.68457031 153.969727,1.69921875 154.467773,1.7578125 C154.96582,1.81640625 155.390625,1.84570312 155.742188,1.84570312 C156.035156,2.54882812 156.28418,3.94042969 156.489258,6.02050781 C156.694336,8.10058594 156.899414,10.6201172 157.104492,13.5791016 C157.30957,16.5380859 157.456055,19.8046875 157.543945,23.3789062 C157.631836,26.953125 157.719727,30.5712891 157.807617,34.2333984 C157.895508,37.8955078 157.954102,41.484375 157.983398,45 C158.012695,48.515625 158.041992,51.7236328 158.071289,54.6240234 C158.100586,57.5244141 158.115234,60 158.115234,62.0507812 L158.115234,66.0058594 C158.056641,67.1777344 157.807617,67.8662109 157.368164,68.0712891 C156.928711,68.2763672 155.917969,68.1445312 154.335938,67.6757812 C154.160156,67.6171875 154.013672,66.7382812 153.896484,65.0390625 C153.779297,63.3398438 153.691406,61.0986328 153.632812,58.3154297 C153.574219,55.5322266 153.515625,52.3388672 153.457031,48.7353516 C153.398438,45.1318359 153.339844,41.4257812 153.28125,37.6171875 C153.222656,33.8085938 153.149414,30 153.061523,26.1914062 C152.973633,22.3828125 152.871094,18.9111328 152.753906,15.7763672 C152.636719,12.6416016 152.475586,9.94628906 152.270508,7.69042969 C152.06543,5.43457031 151.787109,3.89648438 151.435547,3.07617188 Z" id="Path"></path></g></svg>