<svg width="384px" height="384px" viewBox="0 0 16 16" version="1.1" xmlns="http://www.w3.org/2000/svg" aria-hidden="true" role="img" focusable="false" preserveAspectRatio="xMidYMid meet"><rect fill="#000000" fill-rule="nonzero" x="0" y="0" width="16" height="16" rx="3"></rect><path d="M11.125,9.875 C11.125,10.7416667 10.8208333,11.4791667 10.2125,12.0875 C9.60416667,12.6958333 8.86666667,13 8,13 C7.13333333,13 6.39583333,12.6958333 5.7875,12.0875 C5.17916667,11.4791667 4.875,10.7416667 4.875,9.875 L4.875,5.25 C4.875,4.625 5.09375,4.09375 5.53125,3.65625 C5.96875,3.21875 6.5,3 7.125,3 C7.75,3 8.28125,3.21875 8.71875,3.65625 C9.15625,4.09375 9.375,4.625 9.375,5.25 L9.375,9.625 C9.375,10.0083333 9.24166667,10.3333333 8.975,10.6 C8.70833333,10.8666667 8.38333333,11 8,11 C7.61666667,11 7.29166667,10.8666667 7.025,10.6 C6.75833333,10.3333333 6.625,10.0083333 6.625,9.625 L6.625,5 L7.625,5 L7.625,9.625 C7.625,9.73333333 7.66041667,9.82291667 7.73125,9.89375 C7.80208333,9.96458333 7.89166667,10 8,10 C8.10833333,10 8.19791667,9.96458333 8.26875,9.89375 C8.33958333,9.82291667 8.375,9.73333333 8.375,9.625 L8.375,5.25 C8.36666667,4.9 8.24375,4.60416667 8.00625,4.3625 C7.76875,4.12083333 7.475,4 7.125,4 C6.775,4 6.47916667,4.12083333 6.2375,4.3625 C5.99583333,4.60416667 5.875,4.9 5.875,5.25 L5.875,9.875 C5.86666667,10.4666667 6.07083333,10.96875 6.4875,11.38125 C6.90416667,11.79375 7.40833333,12 8,12 C8.58333333,12 9.07916667,11.79375 9.4875,11.38125 C9.89583333,10.96875 10.1083333,10.4666667 10.125,9.875 L10.125,5 L11.125,5 L11.125,9.875 Z" fill="#FFFFFF" fill-rule="nonzero"></path></svg>